<svg width="295" height="38" viewBox="0 0 295 38" fill="none" xmlns="http://www.w3.org/2000/svg">
<path d="M274.642 22.724C274.642 20.5454 275.085 18.6454 275.972 17.024C276.858 15.3774 278.087 14.1107 279.658 13.224C281.228 12.312 283.027 11.856 285.054 11.856C287.663 11.856 289.816 12.5147 291.514 13.832C293.236 15.124 294.389 16.948 294.972 19.304H289.234C288.93 18.392 288.41 17.6827 287.676 17.176C286.966 16.644 286.08 16.378 285.016 16.378C283.496 16.378 282.292 16.9354 281.406 18.05C280.519 19.1394 280.076 20.6974 280.076 22.724C280.076 24.7254 280.519 26.2834 281.406 27.398C282.292 28.4874 283.496 29.032 285.016 29.032C287.169 29.032 288.575 28.0694 289.234 26.144H294.972C294.389 28.424 293.236 30.2354 291.514 31.578C289.791 32.9207 287.638 33.592 285.054 33.592C283.027 33.592 281.228 33.1487 279.658 32.262C278.087 31.35 276.858 30.0834 275.972 28.462C275.085 26.8154 274.642 24.9027 274.642 22.724Z" fill="black"/>
<path d="M263.693 11.894C266.201 11.894 268.227 12.692 269.773 14.288C271.318 15.8587 272.091 18.0626 272.091 20.9V33.25H266.771V21.622C266.771 19.95 266.353 18.6707 265.517 17.784C264.681 16.872 263.541 16.416 262.097 16.416C260.627 16.416 259.462 16.872 258.601 17.784C257.765 18.6707 257.347 19.95 257.347 21.622V33.25H252.027V12.198H257.347V14.82C258.056 13.908 258.955 13.1986 260.045 12.692C261.159 12.16 262.375 11.894 263.693 11.894Z" fill="black"/>
<path d="M247.911 6.72598V33.25H242.591V6.72598H247.911Z" fill="black"/>
<path d="M236.215 33.516C235.253 33.516 234.455 33.2247 233.821 32.642C233.213 32.034 232.909 31.2867 232.909 30.4C232.909 29.5133 233.213 28.7787 233.821 28.196C234.455 27.588 235.253 27.284 236.215 27.284C237.153 27.284 237.925 27.588 238.533 28.196C239.141 28.7787 239.445 29.5133 239.445 30.4C239.445 31.2867 239.141 32.034 238.533 32.642C237.925 33.2247 237.153 33.516 236.215 33.516Z" fill="black"/>
<path d="M220.115 33.592C218.088 33.592 216.264 33.1487 214.643 32.262C213.022 31.35 211.742 30.0707 210.805 28.424C209.893 26.7774 209.437 24.8774 209.437 22.724C209.437 20.5707 209.906 18.6707 210.843 17.024C211.806 15.3774 213.11 14.1107 214.757 13.224C216.404 12.312 218.24 11.856 220.267 11.856C222.294 11.856 224.13 12.312 225.777 13.224C227.424 14.1107 228.716 15.3774 229.653 17.024C230.616 18.6707 231.097 20.5707 231.097 22.724C231.097 24.8774 230.603 26.7774 229.615 28.424C228.652 30.0707 227.335 31.35 225.663 32.262C224.016 33.1487 222.167 33.592 220.115 33.592ZM220.115 28.956C221.078 28.956 221.977 28.728 222.813 28.272C223.674 27.7907 224.358 27.0814 224.865 26.144C225.372 25.2067 225.625 24.0667 225.625 22.724C225.625 20.7227 225.093 19.19 224.029 18.126C222.99 17.0367 221.711 16.492 220.191 16.492C218.671 16.492 217.392 17.0367 216.353 18.126C215.34 19.19 214.833 20.7227 214.833 22.724C214.833 24.7254 215.327 26.2707 216.315 27.36C217.328 28.424 218.595 28.956 220.115 28.956Z" fill="black"/>
<path d="M201.864 15.466C202.548 14.3513 203.434 13.4773 204.524 12.844C205.638 12.2106 206.905 11.894 208.324 11.894V17.48H206.918C205.246 17.48 203.979 17.8727 203.118 18.658C202.282 19.4433 201.864 20.8113 201.864 22.762V33.25H196.544V12.198H201.864V15.466Z" fill="black"/>
<path d="M170.562 22.648C170.562 20.52 170.98 18.6327 171.816 16.986C172.677 15.3394 173.83 14.0727 175.274 13.186C176.743 12.2994 178.377 11.856 180.176 11.856C181.746 11.856 183.114 12.1727 184.28 12.806C185.47 13.4394 186.42 14.2374 187.13 15.2V12.198H192.488V33.25H187.13V30.172C186.446 31.16 185.496 31.9834 184.28 32.642C183.089 33.2754 181.708 33.592 180.138 33.592C178.364 33.592 176.743 33.136 175.274 32.224C173.83 31.312 172.677 30.0327 171.816 28.386C170.98 26.714 170.562 24.8014 170.562 22.648ZM187.13 22.724C187.13 21.432 186.876 20.33 186.37 19.418C185.863 18.4807 185.179 17.7714 184.318 17.29C183.456 16.7834 182.532 16.53 181.544 16.53C180.556 16.53 179.644 16.7707 178.808 17.252C177.972 17.7334 177.288 18.4427 176.756 19.38C176.249 20.292 175.996 21.3814 175.996 22.648C175.996 23.9147 176.249 25.0294 176.756 25.992C177.288 26.9294 177.972 27.6514 178.808 28.158C179.669 28.6647 180.581 28.918 181.544 28.918C182.532 28.918 183.456 28.6774 184.318 28.196C185.179 27.6894 185.863 26.98 186.37 26.068C186.876 25.1307 187.13 24.016 187.13 22.724Z" fill="black"/>
<path d="M164.531 16.568V26.752C164.531 27.4613 164.696 27.9807 165.025 28.31C165.38 28.614 165.963 28.766 166.773 28.766H169.243V33.25H165.899C161.415 33.25 159.173 31.0713 159.173 26.714V16.568H156.665V12.198H159.173V6.992H164.531V12.198H169.243V16.568H164.531Z" fill="black"/>
<path d="M146.02 11.894C148.528 11.894 150.555 12.692 152.1 14.288C153.646 15.8587 154.418 18.0626 154.418 20.9V33.25H149.098V21.622C149.098 19.95 148.68 18.6707 147.844 17.784C147.008 16.872 145.868 16.416 144.424 16.416C142.955 16.416 141.79 16.872 140.928 17.784C140.092 18.6707 139.674 19.95 139.674 21.622V33.25H134.354V12.198H139.674V14.82C140.384 13.908 141.283 13.1986 142.372 12.692C143.487 12.16 144.703 11.894 146.02 11.894Z" fill="black"/>
<path d="M130.245 12.198V33.25H124.887V30.59C124.203 31.502 123.304 32.224 122.189 32.756C121.1 33.2627 119.909 33.516 118.617 33.516C116.971 33.516 115.514 33.174 114.247 32.49C112.981 31.7807 111.98 30.7547 111.245 29.412C110.536 28.044 110.181 26.4227 110.181 24.548V12.198H115.501V23.788C115.501 25.46 115.919 26.752 116.755 27.664C117.591 28.5507 118.731 28.994 120.175 28.994C121.645 28.994 122.797 28.5507 123.633 27.664C124.469 26.752 124.887 25.46 124.887 23.788V12.198H130.245Z" fill="black"/>
<path d="M98.2442 11.894C99.8402 11.894 101.259 12.2487 102.5 12.958C103.742 13.642 104.704 14.668 105.388 16.036C106.098 17.3787 106.452 19 106.452 20.9V33.25H101.132V21.622C101.132 19.95 100.714 18.6707 99.8782 17.784C99.0422 16.872 97.9022 16.416 96.4582 16.416C94.9888 16.416 93.8235 16.872 92.9622 17.784C92.1262 18.6707 91.7082 19.95 91.7082 21.622V33.25H86.3882V5.13H91.7082V14.82C92.3922 13.908 93.3042 13.1987 94.4442 12.692C95.5842 12.16 96.8509 11.894 98.2442 11.894Z" fill="black"/>
<path d="M73.53 33.516C71.6807 33.516 70.0087 33.1993 68.514 32.566C67.0447 31.9327 65.8793 31.0207 65.018 29.83C64.1567 28.6393 63.7133 27.2333 63.688 25.612H69.388C69.464 26.7013 69.844 27.5627 70.528 28.196C71.2373 28.8293 72.2 29.146 73.416 29.146C74.6573 29.146 75.6327 28.8547 76.342 28.272C77.0513 27.664 77.406 26.8787 77.406 25.916C77.406 25.1307 77.1653 24.4847 76.684 23.978C76.2027 23.4713 75.5947 23.0787 74.86 22.8C74.1507 22.496 73.1627 22.1667 71.896 21.812C70.1733 21.3053 68.7673 20.8113 67.678 20.33C66.614 19.8233 65.6893 19.076 64.904 18.088C64.144 17.0747 63.764 15.732 63.764 14.06C63.764 12.4893 64.1567 11.1213 64.942 9.95601C65.7273 8.79067 66.8293 7.90401 68.248 7.29601C69.6667 6.66267 71.288 6.34601 73.112 6.34601C75.848 6.34601 78.0647 7.01734 79.762 8.36001C81.4847 9.67734 82.4347 11.5267 82.612 13.908H76.76C76.7093 12.996 76.3167 12.2487 75.582 11.666C74.8727 11.058 73.9227 10.754 72.732 10.754C71.6933 10.754 70.8573 11.02 70.224 11.552C69.616 12.084 69.312 12.8567 69.312 13.87C69.312 14.5793 69.54 15.1747 69.996 15.656C70.4773 16.112 71.06 16.492 71.744 16.796C72.4533 17.0747 73.4413 17.404 74.708 17.784C76.4307 18.2907 77.8367 18.7973 78.926 19.304C80.0153 19.8107 80.9527 20.5707 81.738 21.584C82.5233 22.5973 82.916 23.9273 82.916 25.574C82.916 26.9927 82.5487 28.31 81.814 29.526C81.0793 30.742 80.0027 31.7173 78.584 32.452C77.1653 33.1613 75.4807 33.516 73.53 33.516Z" fill="black"/>
<path d="M19 0C29.4934 0 38 8.50659 38 19C38 29.4934 29.4934 38 19 38C8.50659 38 0 29.4934 0 19C0 8.50659 8.50659 0 19 0ZM19 34.2009C20.996 34.2009 22.9728 33.8074 24.8169 33.0436C26.661 32.2797 28.3364 31.1593 29.7478 29.7478C31.1592 28.3364 32.2797 26.661 33.0436 24.8169C33.8074 22.9728 34.2009 20.996 34.2009 19C34.2009 17.004 33.8074 15.0272 33.0436 13.1831C32.2797 11.339 31.1593 9.66365 29.7478 8.2522C28.3364 6.84075 26.661 5.72029 24.8169 4.95642C22.9728 4.19259 20.996 3.79907 19 3.79907V34.2009Z" fill="black"/>
</svg>
